PathFileType	4	(X/Y/Z)	./resultDataOpenSim/trcMotMarkerGrf/sub10/qtm-13-02.trc
DataRate	CameraRate	NumFrames	NumMarkers	Units	OrigDataRate	OrigDataStartFrame	OrigNumFrames
250.000000	250.000000	9	24	m	250.000000	1	468
Frame#	Time	L.Toe.Tip			R.Toe.Tip			L.Ankle.Lat			R.Ankle.Lat			L.Ankle.Med			R.Ankle.Med			L.Heel			R.Heel			L.Knee.Lat			R.Knee.Lat			L.Knee.Med			R.Knee.Med			L.Thigh.Upper			R.Thigh.Upper			L.ASIS			R.ASIS			V.Sacral			L.Acromium			R.Acromium			C7			L.Elbow			R.Elbow			L.Wrist.Lat			R.Wrist.Lat
		X1	Y1	Z1	X2	Y2	Z2	X3	Y3	Z3	X4	Y4	Z4	X5	Y5	Z5	X6	Y6	Z6	X7	Y7	Z7	X8	Y8	Z8	X9	Y9	Z9	X10	Y10	Z10	X11	Y11	Z11	X12	Y12	Z12	X13	Y13	Z13	X14	Y14	Z14	X15	Y15	Z15	X16	Y16	Z16	X17	Y17	Z17	X18	Y18	Z18	X19	Y19	Z19	X20	Y20	Z20	X21	Y21	Z21	X22	Y22	Z22	X23	Y23	Z23	X24	Y24	Z24

1	0	-1.4723016	0.038973262	-0.18445583	-0.96027922	0.093868942	-0.0071114851	-1.607846	0.068767746	-0.21145225	-1.0984014	0.067423008	-0.0037845302	-1.5909243	0.092431084	-0.13115799	-1.0740547	0.10844398	-0.076948197	-1.6738404	0.044436944	-0.17478306	-1.1263146	0.033180046	-0.068778131	-1.5047458	0.44408698	-0.23941698	-1.2037158	0.45407695	0.044611054	-1.4985543	0.41929574	-0.12032765	-1.1754412	0.46781071	-0.080178516	-1.4010614	0.82744423	-0.29014951	-1.3486542	0.84641225	0.091720152	-1.3222041	0.92725437	-0.23249589	-1.2879849	0.944379	0.011709692	-1.5000514	0.94749303	-0.081219453	-1.3058589	1.3968526	-0.26718066	-1.3404921	1.3982846	0.052081791	-1.4018955	1.4330333	-0.11805707	-1.3351731	1.0520983	-0.33305426	-1.5075377	1.0960955	0.10234847	-1.1311508	0.90864745	-0.31407807	-1.422585	0.86904014	0.15841282
2	0.004	-1.4721224	0.038912491	-0.1844513	-0.94640724	0.09789274	-0.0078213009	-1.6075108	0.069189431	-0.21083291	-1.0839956	0.068044564	-0.0032658095	-1.590908	0.092712832	-0.13050038	-1.0607572	0.10953119	-0.076692682	-1.6738605	0.045329015	-0.17468016	-1.1113513	0.033037178	-0.067712436	-1.5013144	0.44359237	-0.23916913	-1.1979095	0.45214867	0.044628542	-1.4951766	0.41876271	-0.12001124	-1.170198	0.46610742	-0.080489893	-1.3961997	0.82640889	-0.29016882	-1.3421381	0.84489201	0.091719606	-1.3173279	0.92625939	-0.23265203	-1.2817104	0.94331449	0.011578228	-1.4946332	0.94578701	-0.080584365	-1.3010311	1.3958591	-0.26697024	-1.3353694	1.396704	0.052307946	-1.3972362	1.4317954	-0.11809441	-1.3283097	1.0509647	-0.33276033	-1.5030817	1.0950415	0.10194279	-1.1225773	0.90999051	-0.31236193	-1.4198048	0.86720778	0.15816333
3	0.008	-1.4719795	0.038813738	-0.18441088	-0.93288059	0.1017976	-0.008624151	-1.6074265	0.069857628	-0.21064228	-1.0698737	0.068706847	-0.0027220015	-1.5907237	0.093033685	-0.12989472	-1.0477825	0.1106387	-0.076424042	-1.6741675	0.046551885	-0.17522717	-1.0966365	0.033051885	-0.066689393	-1.4977921	0.44309365	-0.23891283	-1.1924081	0.45026252	0.044626847	-1.4916153	0.41823476	-0.11971665	-1.1649593	0.46445579	-0.080727306	-1.3913578	0.82537634	-0.29013804	-1.3354976	0.84338051	0.091736248	-1.3124292	0.92528163	-0.23278785	-1.2754638	0.94225467	0.011423154	-1.4891861	0.94410355	-0.079933486	-1.296183	1.3948646	-0.26674486	-1.330219	1.3951403	0.052550008	-1.3926281	1.4306614	-0.11812532	-1.321464	1.0498587	-0.33244256	-1.4983496	1.093896	0.10148923	-1.1140295	0.91138166	-0.31064291	-1.4170744	0.86536048	0.15789515
4	0.012	-1.4718731	0.038651187	-0.18432523	-0.91986389	0.10549925	-0.0094411608	-1.6077219	0.070956894	-0.21114534	-1.0562279	0.069435038	-0.0021418176	-1.59016	0.093439485	-0.12939396	-1.035323	0.11175663	-0.076133697	-1.6746919	0.048089451	-0.17627472	-1.0824137	0.033249434	-0.065685246	-1.49415	0.44260053	-0.2386449	-1.1872807	0.44846428	0.044596567	-1.487802	0.41772313	-0.11945871	-1.1597194	0.46289232	-0.08084835	-1.3865023	0.82440539	-0.29001084	-1.328524	0.84191126	0.091804662	-1.3074933	0.92433841	-0.23290993	-1.2692484	0.94119234	0.011228005	-1.4836867	0.94245784	-0.079258793	-1.2913114	1.393877	-0.26648323	-1.3250413	1.3936195	0.052817298	-1.3881001	1.4297076	-0.11814377	-1.3146424	1.0488004	-0.33210821	-1.493269	1.0926004	0.10094116	-1.1055319	0.91282225	-0.30891079	-1.4145255	0.8634702	0.15759375
5	0.016	-1.4717835	0.038452718	-0.18421524	-0.90739234	0.10895725	-0.010134498	-1.6082093	0.072363859	-0.21206088	-1.0431687	0.070224341	-0.0015235632	-1.5892349	0.093940567	-0.12899711	-1.0234793	0.11284093	-0.075825818	-1.6750969	0.049645844	-0.17707725	-1.0689073	0.033538946	-0.064641712	-1.4904056	0.44212729	-0.23837197	-1.1822164	0.44682763	0.044587982	-1.4837809	0.417222	-0.11923127	-1.1544772	0.46143474	-0.080860212	-1.3816013	0.82356222	-0.28981359	-1.3210867	0.84051408	0.091947813	-1.3025251	0.92343928	-0.23304344	-1.2630749	0.94011561	0.010985416	-1.478138	0.94085882	-0.078562974	-1.286434	1.3929099	-0.26617231	-1.319839	1.3921639	0.053115391	-1.3835916	1.4289158	-0.1180103	-1.3078638	1.047805	-0.3317824	-1.4879867	1.0911828	0.10030671	-1.0971374	0.9142829	-0.30716264	-1.4122435	0.86153208	0.15725718
6	0.02	-1.471697	0.038287422	-0.18411268	-0.89548312	0.11213477	-0.010722579	-1.6084227	0.073630546	-0.21254158	-1.0307278	0.071037412	-0.00086985677	-1.5882773	0.09449143	-0.12862537	-1.0122874	0.11383937	-0.075508711	-1.6751779	0.051025782	-0.17719156	-1.0562112	0.033831655	-0.063550839	-1.4865815	0.44167319	-0.23810117	-1.1766674	0.44545076	0.044723122	-1.4796604	0.41670076	-0.11900092	-1.1492385	0.46007141	-0.080803768	-1.3766911	0.82282282	-0.28966118	-1.3133865	0.83916637	0.092127645	-1.2975409	0.9225761	-0.2332144	-1.2569655	0.93901531	0.01069449	-1.4725485	0.93930995	-0.077848549	-1.2815626	1.3919702	-0.26581312	-1.3146046	1.390771	0.053450723	-1.3789768	1.4281566	-0.1175538	-1.3011496	1.046885	-0.33147422	-1.4826843	1.089752	0.099671401	-1.0888923	0.91575184	-0.30540902	-1.410019	0.85960875	0.15691388
7	0.024	-1.471608	0.038191482	-0.18403592	-0.88414272	0.11494748	-0.011360055	-1.6080887	0.074462295	-0.21206167	-1.0188971	0.071820036	-0.00018259495	-1.5875492	0.095041255	-0.1281901	-1.0017226	0.11471553	-0.075178186	-1.6749951	0.052281571	-0.17677563	-1.0442873	0.034092878	-0.062471301	-1.4826971	0.44122589	-0.23783458	-1.1702248	0.44440433	0.045114948	-1.4755491	0.41614312	-0.11873964	-1.1440174	0.45876321	-0.080718642	-1.3718366	0.82211208	-0.28961848	-1.3058641	0.83780894	0.09226301	-1.2925628	0.92173322	-0.23344093	-1.2509249	0.93789117	0.010359112	-1.4669172	0.93781476	-0.077112574	-1.2766956	1.3910606	-0.26540877	-1.3093469	1.3894249	0.053823559	-1.3742013	1.4273085	-0.1168145	-1.294517	1.0460483	-0.33116983	-1.4774266	1.0883967	0.099114286	-1.080806	0.91724279	-0.30366864	-1.4074351	0.85780021	0.15661481
8	0.028	-1.4715134	0.038147078	-0.18398411	-0.87329535	0.11731849	-0.012145417	-1.6074107	0.075026546	-0.21103371	-1.0076698	0.072522586	0.00054040125	-1.5870022	0.095592268	-0.12767228	-0.99172047	0.11545186	-0.074817324	-1.6746915	0.053548801	-0.17616518	-1.0330646	0.034309949	-0.061453936	-1.4787552	0.44078378	-0.23757989	-1.1628345	0.4436865	0.045782117	-1.4714386	0.41557325	-0.11846525	-1.1388143	0.45746895	-0.080627938	-1.3670422	0.82141234	-0.28961369	-1.2987702	0.83640728	0.092312303	-1.2875993	0.92090778	-0.23372488	-1.2449192	0.93675082	0.0099826579	-1.4612361	0.93637811	-0.076351485	-1.2718185	1.3901889	-0.26495771	-1.3040771	1.3881241	0.054229751	-1.3693086	1.4263614	-0.11600428	-1.2879756	1.045295	-0.33085446	-1.4721703	1.0871237	0.098642829	-1.0728576	0.91877328	-0.30195577	-1.4042848	0.85615313	0.15638623
9	0.032	-1.4714133	0.038126338	-0.18394786	-0.86283394	0.11926955	-0.013040866	-1.6067327	0.075644391	-0.21014859	-0.99705367	0.073105763	0.0012963532	-1.5864898	0.096190698	-0.12713339	-0.98223212	0.1160324	-0.074406808	-1.6743577	0.05491031	-0.17556608	-1.0225064	0.034459606	-0.060464176	-1.4747461	0.44036421	-0.23735441	-1.1548567	0.44321274	0.046612651	-1.4672136	0.4150217	-0.11823091	-1.1335892	0.4561793	-0.080542877	-1.3622636	0.82075582	-0.28955566	-1.2920233	0.83497207	0.092298822	-1.282626	0.92011707	-0.23404633	-1.2389035	0.93559922	0.0095676253	-1.4554979	0.93500526	-0.075561945	-1.2669131	1.3893625	-0.26445896	-1.2987915	1.3868875	0.054677237	-1.3643663	1.4253768	-0.11532124	-1.2815251	1.0446149	-0.33052814	-1.4668531	1.0859009	0.098227998	-1.0650221	0.92034869	-0.3002738	-1.4007636	0.85462925	0.15620211
